<svg viewBox="0 0 200 200" xmlns="http://www.w3.org/2000/svg">
<rect width="200" height="200" fill="#FBEFE9"/>
<ellipse cx="100" cy="150" rx="85" ry="14" fill="#E8D6C8"/>
<rect x="35" y="95" width="130" height="55" rx="10" fill="#F7E2D3"/>
<circle cx="78" cy="105" r="22" fill="#5A3A28"/>
<circle cx="120" cy="112" r="25" fill="#6B4530"/>
<circle cx="100" cy="135" r="20" fill="#5A3A28"/>
<g fill="#8A6B52">
<circle cx="70" cy="98" r="2.5"/><circle cx="86" cy="100" r="2.5"/><circle cx="78" cy="112" r="2.5"/>
<circle cx="112" cy="104" r="2.5"/><circle cx="128" cy="110" r="2.5"/><circle cx="120" cy="122" r="2.5"/>
<circle cx="92" cy="130" r="2.5"/><circle cx="108" cy="140" r="2.5"/><circle cx="98" cy="142" r="2.5"/>
</g>
<g fill="#C9A37A">
<ellipse cx="65" cy="92" rx="6" ry="3" transform="rotate(-20 65 92)"/>
<ellipse cx="135" cy="98" rx="6" ry="3" transform="rotate(15 135 98)"/>
</g>
</svg>
