<svg width="38" height="38" viewBox="0 0 38 38" fill="none" xmlns="http://www.w3.org/2000/svg">
<mask id="mask0_15_171" style="mask-type:luminance" maskUnits="userSpaceOnUse" x="0" y="0" width="38" height="38">
<path d="M37.5 0.5V37.5H0.5V0.5H37.5Z" fill="white" stroke="white"/>
</mask>
<g mask="url(#mask0_15_171)">
<path d="M4.75 20.5992V13.4584C4.75 8.70835 7.125 5.54169 12.6667 5.54169H25.3333C30.875 5.54169 33.25 8.70835 33.25 13.4584V25.9034C32.0942 24.5892 30.4 23.75 28.5 23.75C25.0008 23.75 22.1667 26.5842 22.1667 30.0834C22.1667 31.2709 22.4992 32.395 23.085 33.345C23.4175 33.915 23.845 34.4217 24.3358 34.8334H12.6667C7.125 34.8334 4.75 31.6667 4.75 26.9167" stroke="black" stroke-width="1.5" stroke-miterlimit="10" stroke-linecap="round" stroke-linejoin="round"/>
<path d="M12.6666 3.16669V7.91669" stroke="black" stroke-width="1.5" stroke-miterlimit="10" stroke-linecap="round" stroke-linejoin="round"/>
<path d="M25.3334 3.16669V7.91669" stroke="black" stroke-width="1.5" stroke-miterlimit="10" stroke-linecap="round" stroke-linejoin="round"/>
<path d="M5.54163 14.3923H32.4583" stroke="black" stroke-width="1.5" stroke-miterlimit="10" stroke-linecap="round" stroke-linejoin="round"/>
<path d="M28.5 36.4167C31.9977 36.4167 34.8333 33.5811 34.8333 30.0833C34.8333 26.5856 31.9977 23.75 28.5 23.75C25.0022 23.75 22.1666 26.5856 22.1666 30.0833C22.1666 33.5811 25.0022 36.4167 28.5 36.4167Z" stroke="black" stroke-width="1.5" stroke-miterlimit="10" stroke-linecap="round" stroke-linejoin="round"/>
<path d="M30.8588 30.1638H26.1405" stroke="black" stroke-width="1.5" stroke-miterlimit="10" stroke-linecap="round" stroke-linejoin="round"/>
<path d="M28.5 27.8505V32.5847" stroke="black" stroke-width="1.5" stroke-miterlimit="10" stroke-linecap="round" stroke-linejoin="round"/>
<path d="M18.9928 21.6904H19.007" stroke="black" stroke-width="2" stroke-linecap="round" stroke-linejoin="round"/>
<path d="M13.1327 21.6904H13.1469" stroke="black" stroke-width="2" stroke-linecap="round" stroke-linejoin="round"/>
<path d="M13.1327 26.4404H13.1469" stroke="black" stroke-width="2" stroke-linecap="round" stroke-linejoin="round"/>
</g>
</svg>
