<svg viewBox="0 0 200 200" xmlns="http://www.w3.org/2000/svg">
<rect width="200" height="200" fill="#EFF6EE"/>
<ellipse cx="100" cy="150" rx="85" ry="14" fill="#D6E6D2"/>
<path d="M28 105 a72 72 0 0 0 144 0 z" fill="#FBFBF2"/>
<ellipse cx="100" cy="103" rx="72" ry="17" fill="#F4EEDB"/>
<g>
<ellipse cx="70" cy="98" rx="22" ry="13" fill="#F3A582"/>
<path d="M52 98 q18 -6 36 0 q-18 6 -36 0" fill="#E8865F"/>
<circle cx="78" cy="93" r="2.5" fill="#fff" opacity="0.6"/>
<circle cx="62" cy="100" r="2" fill="#fff" opacity="0.5"/>
</g>
<g fill="#F4EEDB">
<circle cx="120" cy="98" r="2.5"/><circle cx="128" cy="94" r="2.5"/><circle cx="136" cy="100" r="2.5"/>
<circle cx="124" cy="103" r="2.5"/><circle cx="132" cy="108" r="2.5"/><circle cx="115" cy="105" r="2.5"/>
<circle cx="140" cy="106" r="2.5"/><circle cx="123" cy="92" r="2.5"/><circle cx="133" cy="86" r="2.5"/>
</g>
<g fill="#5B8C3E">
<ellipse cx="55" cy="110" rx="10" ry="6" transform="rotate(-20 55 110)"/>
<ellipse cx="65" cy="116" rx="10" ry="6" transform="rotate(10 65 116)"/>
<ellipse cx="45" cy="118" rx="9" ry="5.5" transform="rotate(-30 45 118)"/>
</g>
<circle cx="105" cy="115" r="3" fill="#E8A33C"/>
<circle cx="112" cy="120" r="3" fill="#E8A33C"/>
<circle cx="99" cy="121" r="3" fill="#E8A33C"/>
<rect x="44" y="86" width="112" height="17" fill="#F4EEDB" rx="4"/>
<ellipse cx="100" cy="86" rx="56" ry="8" fill="#FBFBF2"/>
</svg>
