<svg viewBox="0 0 200 200" xmlns="http://www.w3.org/2000/svg">
<rect width="200" height="200" fill="#F1F6F2"/>
<ellipse cx="100" cy="150" rx="85" ry="14" fill="#D9E5DA"/>
<path d="M30 105 a70 70 0 0 0 140 0 z" fill="#FBFBF6"/>
<ellipse cx="100" cy="103" rx="70" ry="16" fill="#C9A876"/>
<ellipse cx="100" cy="100" rx="58" ry="11" fill="#D8BD8E"/>
<g fill="#5B8C3E">
<rect x="80" y="92" width="3" height="14" rx="1.5" transform="rotate(-10 80 92)"/>
<rect x="95" y="90" width="3" height="16" rx="1.5"/>
<rect x="112" y="92" width="3" height="14" rx="1.5" transform="rotate(10 112 92)"/>
</g>
<circle cx="70" cy="100" r="6" fill="#F4EEDB"/>
<circle cx="130" cy="102" r="7" fill="#F4EEDB"/>
<path d="M50 80 q5 -10 0 -18" stroke="#C9C9C9" stroke-width="2.5" fill="none" stroke-linecap="round" opacity="0.6"/>
<path d="M150 78 q-5 -10 0 -18" stroke="#C9C9C9" stroke-width="2.5" fill="none" stroke-linecap="round" opacity="0.6"/>
<path d="M100 75 q5 -10 0 -18" stroke="#C9C9C9" stroke-width="2.5" fill="none" stroke-linecap="round" opacity="0.6"/>
<rect x="46" y="86" width="108" height="17" fill="#D8BD8E" rx="4"/>
<ellipse cx="100" cy="86" rx="54" ry="8" fill="#FBFBF6"/>
</svg>
