<svg width="36" height="34" viewBox="0 0 36 34" fill="none" xmlns="http://www.w3.org/2000/svg">
<g clip-path="url(#clip0_15_185)">
<mask id="mask0_15_185" style="mask-type:luminance" maskUnits="userSpaceOnUse" x="0" y="0" width="36" height="34">
<path d="M36 0H0V34H36V0Z" fill="white"/>
</mask>
<g mask="url(#mask0_15_185)">
<path d="M18.9147 3.13081C18.3747 2.73415 17.6247 2.73415 17.0847 3.13081C14.2347 5.18498 5.81968 11.8858 5.86468 19.6916C5.86468 26.01 11.3097 31.1666 18.0147 31.1666C24.7197 31.1666 30.1647 26.0241 30.1647 19.7058C30.1797 12.0133 21.7497 5.19915 18.9147 3.13081Z" stroke="black" stroke-width="1.5" stroke-miterlimit="10"/>
<g opacity="0.4">
<path d="M18 2.83331V31.1666" stroke="black" stroke-width="1.5" stroke-linecap="round" stroke-linejoin="round"/>
<path d="M18 26.861L29.55 21.5626" stroke="black" stroke-width="1.5" stroke-linecap="round" stroke-linejoin="round"/>
<path d="M18 19.7779L29.055 14.7062" stroke="black" stroke-width="1.5" stroke-linecap="round" stroke-linejoin="round"/>
<path d="M18 12.693L25.545 9.22217" stroke="black" stroke-width="1.5" stroke-linecap="round" stroke-linejoin="round"/>
</g>
</g>
</g>
<defs>
<clipPath id="clip0_15_185">
<rect width="36" height="34" fill="white"/>
</clipPath>
</defs>
</svg>
