<svg width="34" height="34" viewBox="0 0 34 34" fill="none" xmlns="http://www.w3.org/2000/svg">
<g clip-path="url(#clip0_15_206)">
<mask id="mask0_15_206" style="mask-type:luminance" maskUnits="userSpaceOnUse" x="3" y="0" width="34" height="34">
<path d="M37 0H3V34H37V0Z" fill="white"/>
</mask>
<g mask="url(#mask0_15_206)">
<path d="M7.25 18.3883V21.25C7.25 28.3333 10.0833 31.1666 17.1667 31.1666H22.8333C29.9167 31.1666 32.75 28.3333 32.75 21.25V12.75C32.75 5.66665 29.9167 2.83331 22.8333 2.83331H17.1667C10.0833 2.83331 7.25 5.66665 7.25 12.75" stroke="black" stroke-width="1.5" stroke-linecap="round" stroke-linejoin="round"/>
<path d="M27.4375 11.744C23.2017 7.9757 16.7983 7.9757 12.5625 11.744L15.6508 16.7023C18.13 14.4923 21.87 14.4923 24.3492 16.7023" stroke="black" stroke-width="1.5" stroke-linecap="round" stroke-linejoin="round"/>
</g>
</g>
<defs>
<clipPath id="clip0_15_206">
<rect width="34" height="34" fill="white"/>
</clipPath>
</defs>
</svg>
