<svg width="34" height="34" viewBox="0 0 34 34" fill="none" xmlns="http://www.w3.org/2000/svg">
<mask id="mask0_20_532" style="mask-type:luminance" maskUnits="userSpaceOnUse" x="0" y="0" width="34" height="34">
<path d="M34 0H0V34H34V0Z" fill="white"/>
</mask>
<g mask="url(#mask0_20_532)">
<path d="M17 18.0625C12.5091 18.0625 8.85413 14.4075 8.85413 9.91665C8.85413 5.42581 12.5091 1.77081 17 1.77081C21.4908 1.77081 25.1458 5.42581 25.1458 9.91665C25.1458 14.4075 21.4908 18.0625 17 18.0625ZM17 3.89581C13.685 3.89581 10.9791 6.60165 10.9791 9.91665C10.9791 13.2316 13.685 15.9375 17 15.9375C20.315 15.9375 23.0208 13.2316 23.0208 9.91665C23.0208 6.60165 20.315 3.89581 17 3.89581Z" fill="black"/>
<path d="M29.1693 32.2292C28.5885 32.2292 28.1068 31.7475 28.1068 31.1667C28.1068 26.2792 23.1203 22.3125 17.0003 22.3125C10.8802 22.3125 5.89355 26.2792 5.89355 31.1667C5.89355 31.7475 5.41189 32.2292 4.83105 32.2292C4.25022 32.2292 3.76855 31.7475 3.76855 31.1667C3.76855 25.1175 9.70437 20.1875 17.0003 20.1875C24.2961 20.1875 30.2318 25.1175 30.2318 31.1667C30.2318 31.7475 29.7501 32.2292 29.1693 32.2292Z" fill="black"/>
</g>
</svg>
